<svg id="Layer_1" data-name="Layer 1" xmlns="http://www.w3.org/2000/svg" viewBox="0 0 512 512"><defs><style>.cls-1{fill:#f1f700;}.cls-2{fill:#003dff;}</style></defs><rect class="cls-1" x="1" y="1" width="510" height="510" rx="51.22"/><path class="cls-2" d="M455.36,203.79,433.9,182.33V152a73.94,73.94,0,0,0-73.85-73.86H329.7L308.24,56.67a73.86,73.86,0,0,0-104.45,0L182.34,78.13H152A73.94,73.94,0,0,0,78.13,152v30.34L56.67,203.79a73.86,73.86,0,0,0,0,104.45L78.13,329.7v30.35A73.94,73.94,0,0,0,152,433.9h30.35l21.45,21.46a73.94,73.94,0,0,0,104.45,0L329.7,433.9h30.35a73.93,73.93,0,0,0,73.85-73.85V329.7l21.46-21.46A73.94,73.94,0,0,0,455.36,203.79Zm-7.52,99.49L425.07,326v32.2a66.83,66.83,0,0,1-66.83,66.83H326l-22.76,22.77a66.84,66.84,0,0,1-94.52,0L186,425.07H153.8A66.84,66.84,0,0,1,87,358.24V326L64.2,303.28a66.84,66.84,0,0,1,0-94.52L87,186V153.8A66.85,66.85,0,0,1,153.8,87H186L208.76,64.2a66.84,66.84,0,0,1,94.52,0L326,87h32.2a66.84,66.84,0,0,1,66.83,66.84V186l22.77,22.77A66.84,66.84,0,0,1,447.84,303.28Z"/><path class="cls-2" d="M349.36,221.66h-59v-59A15.66,15.66,0,0,0,274.67,147H237.33a15.66,15.66,0,0,0-15.67,15.67v59h-59A15.66,15.66,0,0,0,147,237.33v37.34a15.66,15.66,0,0,0,15.67,15.67h59v59A15.66,15.66,0,0,0,237.33,365h37.34a15.66,15.66,0,0,0,15.67-15.67v-59h59A15.66,15.66,0,0,0,365,274.67V237.33A15.66,15.66,0,0,0,349.36,221.66Z"/></svg>