<svg id="Layer_1" data-name="Layer 1" xmlns="http://www.w3.org/2000/svg" viewBox="0 0 45 30"><defs><style>.cls-1{fill:#1d1d1b;}</style></defs><path class="cls-1" d="M42.34,15.5H3.77c-.4,0-.72-.22-.72-.5s.32-.5.72-.5H42.34c.39,0,.71.22.71.5S42.73,15.5,42.34,15.5Z"/><path class="cls-1" d="M42.34,25.5H3.77c-.4,0-.72-.22-.72-.5s.32-.5.72-.5H42.34c.39,0,.71.22.71.5S42.73,25.5,42.34,25.5Z"/><path class="cls-1" d="M42.34,5.5H3.77c-.4,0-.72-.22-.72-.5s.32-.5.72-.5H42.34c.39,0,.71.22.71.5S42.73,5.5,42.34,5.5Z"/></svg>